Chad Smith Vs Will Ferrell Drum Off
The Tonight Show With Jimmy Fallon
New York,NY 
2014-05-22

Chad Smith And Will Ferrell Interview,
Drum Off,& Will With The Chili Peppers
Performing Don't Fear The Reaper,
Standing On The Verge Of Getting It On,
And Give It Away      Total Time 22:00


2.23 GB


MPEG-TS 
1920 x 1080i interlaced (16 X 9) 
29 Frames Sec 
14533 kbps 


Dolby AC-3 
6 Channel 
384 kbps 
48.0 khz





General
ID                                       : 0 (0x0)
Complete name                            : Chad Smith Vs Will Ferrell Drum Off & Red Hot Chili Peppers On Fallon 05-22-14.m2ts
Format                                   : BDAV
Format/Info                              : Blu-ray Video
File size                                : 2.23 GiB
Duration                                 : 22mn 0s
Overall bit rate mode                    : Variable
Overall bit rate                         : 14.5 Mbps
Maximum Overall bit rate                 : 48.0 Mbps

Video
ID                                       : 4113 (0x1011)
Menu ID                                  : 1 (0x1)
Format                                   : AVC
Format/Info                              : Advanced Video Codec
Format profile                           : Main@L4.0
Format settings, CABAC                   : Yes
Format settings, ReFrames                : 4 frames
Codec ID                                 : 27
Duration                                 : 22mn 0s
Bit rate mode                            : Variable
Bit rate                                 : 13.6 Mbps
Maximum bit rate                         : 20.0 Mbps
Width                                    : 1 920 pixels
Height                                   : 1 080 pixels
Display aspect ratio                     : 16:9
Frame rate                               : 29.970 fps
Color space                              : YUV
Chroma subsampling                       : 4:2:0
Bit depth                                : 8 bits
Scan type                                : Interlaced
Scan order                               : Top Field First
Bits/(Pixel*Frame)                       : 0.218
Stream size                              : 2.08 GiB (93%)
Color primaries                          : BT.709
Transfer characteristics                 : BT.709
Matrix coefficients                      : BT.709

Audio
ID                                       : 4352 (0x1100)
Menu ID                                  : 1 (0x1)
Format                                   : AC-3
Format/Info                              : Audio Coding 3
Mode extension                           : CM (complete main)
Format settings, Endianness              : Big
Codec ID                                 : 129
Duration                                 : 22mn 0s
Bit rate mode                            : Constant
Bit rate                                 : 384 Kbps
Channel(s)                               : 6 channels
Channel positions                        : Front: L C R, Side: L R, LFE
Sampling rate                            : 48.0 KHz
Bit depth                                : 16 bits
Compression mode                         : Lossy
Stream size                              : 60.4 MiB (3%)

